<svg width="14" height="15" viewBox="0 0 14 15" fill="none" xmlns="http://www.w3.org/2000/svg">
<path fill-rule="evenodd" clip-rule="evenodd" d="M5.88743 2.56053L8.3718 0.0761563C8.40805 0.0398101 8.45428 0.015047 8.50462 0.00500641C8.55497 -0.00503413 8.60716 0.000100038 8.65459 0.0197581C8.70201 0.0394161 8.74253 0.0727127 8.77101 0.115427C8.79948 0.158141 8.81464 0.208348 8.81454 0.259685V5.22843C8.81464 5.27976 8.79948 5.32997 8.77101 5.37268C8.74253 5.4154 8.70201 5.4487 8.65459 5.46835C8.60716 5.48801 8.55497 5.49315 8.50462 5.4831C8.45428 5.47306 8.40805 5.4483 8.3718 5.41195L5.88743 2.92758C5.86329 2.9035 5.84413 2.8749 5.83106 2.84341C5.818 2.81191 5.81127 2.77815 5.81127 2.74406C5.81127 2.70996 5.818 2.6762 5.83106 2.6447C5.84413 2.61321 5.86329 2.58461 5.88743 2.56053ZM2.33403 1.96639C2.12778 1.96639 1.92998 2.04833 1.78414 2.19417C1.6383 2.34001 1.55637 2.53781 1.55637 2.74406C1.55637 2.9503 1.6383 3.14811 1.78414 3.29395C1.92998 3.43979 2.12778 3.52172 2.33403 3.52172C2.54028 3.52172 2.73808 3.43979 2.88392 3.29395C3.02976 3.14811 3.11169 2.9503 3.11169 2.74406C3.11169 2.53781 3.02976 2.34001 2.88392 2.19417C2.73808 2.04833 2.54028 1.96639 2.33403 1.96639ZM0.00104168 2.74406C0.00117087 2.31637 0.11886 1.89696 0.341248 1.53164C0.563636 1.16633 0.882164 0.869173 1.26202 0.672654C1.64188 0.476134 2.06845 0.387813 2.49511 0.417342C2.92177 0.446871 3.3321 0.593114 3.68127 0.840089C4.03043 1.08706 4.30498 1.42527 4.47493 1.81773C4.64487 2.2102 4.70366 2.64183 4.64487 3.06545C4.58608 3.48907 4.41197 3.88838 4.14158 4.21974C3.87119 4.5511 3.51491 4.80176 3.11169 4.94432V10.3942C3.63085 10.5776 4.06843 10.9387 4.34709 11.4136C4.62574 11.8885 4.72754 12.4466 4.63447 12.9893C4.5414 13.532 4.25947 14.0244 3.8385 14.3793C3.41753 14.7342 2.88465 14.9289 2.33403 14.9289C1.78341 14.9289 1.25052 14.7342 0.829556 14.3793C0.40859 14.0244 0.126655 13.532 0.0335872 12.9893C-0.0594807 12.4466 0.0423111 11.8885 0.32097 11.4136C0.599628 10.9387 1.03721 10.5776 1.55637 10.3942V4.94432C1.1014 4.78346 0.707501 4.48548 0.428949 4.09142C0.150397 3.69737 0.000895913 3.22662 0.00104168 2.74406ZM9.85143 1.96639H8.81454V3.52172H9.85143C10.1264 3.52172 10.3902 3.63096 10.5846 3.82541C10.7791 4.01987 10.8883 4.2836 10.8883 4.5586V10.3942C10.3692 10.5776 9.93157 10.9387 9.65291 11.4136C9.37426 11.8885 9.27246 12.4466 9.36553 12.9893C9.4586 13.532 9.74053 14.0244 10.1615 14.3793C10.5825 14.7342 11.1154 14.9289 11.666 14.9289C12.2166 14.9289 12.7495 14.7342 13.1704 14.3793C13.5914 14.0244 13.8733 13.532 13.9664 12.9893C14.0595 12.4466 13.9577 11.8885 13.679 11.4136C13.4004 10.9387 12.9628 10.5776 12.4436 10.3942V4.5586C12.4436 3.8711 12.1705 3.21177 11.6844 2.72563C11.1983 2.2395 10.5389 1.96639 9.85143 1.96639ZM10.8883 12.5944C10.8883 12.3882 10.9702 12.1904 11.1161 12.0446C11.2619 11.8987 11.4597 11.8168 11.666 11.8168C11.8722 11.8168 12.07 11.8987 12.2159 12.0446C12.3617 12.1904 12.4436 12.3882 12.4436 12.5944C12.4436 12.8007 12.3617 12.9985 12.2159 13.1443C12.07 13.2902 11.8722 13.3721 11.666 13.3721C11.4597 13.3721 11.2619 13.2902 11.1161 13.1443C10.9702 12.9985 10.8883 12.8007 10.8883 12.5944ZM2.33403 11.8168C2.12778 11.8168 1.92998 11.8987 1.78414 12.0446C1.6383 12.1904 1.55637 12.3882 1.55637 12.5944C1.55637 12.8007 1.6383 12.9985 1.78414 13.1443C1.92998 13.2902 2.12778 13.3721 2.33403 13.3721C2.54028 13.3721 2.73808 13.2902 2.88392 13.1443C3.02976 12.9985 3.11169 12.8007 3.11169 12.5944C3.11169 12.3882 3.02976 12.1904 2.88392 12.0446C2.73808 11.8987 2.54028 11.8168 2.33403 11.8168Z" fill="#7287FD"/>
</svg>
