<svg width="17" height="16" viewBox="0 0 17 16" fill="none" xmlns="http://www.w3.org/2000/svg">
<path fill-rule="evenodd" clip-rule="evenodd" d="M8.50109 1.77395e-07C8.66174 -0.000102158 8.81921 0.0440739 8.95568 0.127528C9.09214 0.210983 9.20216 0.330383 9.27328 0.472214L11.4327 4.78202L16.2631 5.47339C16.422 5.49611 16.5713 5.56213 16.694 5.66399C16.8168 5.76585 16.9081 5.89949 16.9578 6.0498C17.0075 6.20011 17.0134 6.36111 16.975 6.51458C16.9366 6.66805 16.8554 6.80789 16.7405 6.91828L13.2455 10.2735L14.0705 15.0092C14.0977 15.165 14.0801 15.3252 14.0196 15.4717C13.9592 15.6182 13.8583 15.7451 13.7284 15.838C13.5985 15.931 13.4448 15.9863 13.2847 15.9978C13.1245 16.0092 12.9643 15.9763 12.8221 15.9028L8.50109 13.666L4.18004 15.9028C4.03798 15.9762 3.87789 16.0091 3.71786 15.9977C3.55783 15.9863 3.40422 15.931 3.27438 15.8382C3.14455 15.7454 3.04366 15.6187 2.9831 15.4724C2.92254 15.3261 2.90473 15.166 2.93168 15.0103L3.7578 10.2724L0.260571 6.91828C0.145335 6.80793 0.0637937 6.66801 0.0251871 6.51437C-0.0134195 6.36074 -0.00754768 6.19952 0.0421371 6.049C0.0918219 5.89848 0.183333 5.76468 0.306301 5.66274C0.429269 5.56081 0.578777 5.49482 0.737883 5.47226L5.56837 4.78202L7.7289 0.472214C7.80001 0.330383 7.91003 0.210983 8.0465 0.127528C8.18297 0.0440739 8.34044 -0.000102158 8.50109 1.77395e-07ZM8.50109 2.76211L6.91196 5.93092C6.85025 6.05394 6.75911 6.16037 6.64639 6.24105C6.53367 6.32173 6.40273 6.37425 6.26483 6.3941L2.71138 6.90246L5.28153 9.36972C5.38152 9.46559 5.45634 9.58397 5.49951 9.71465C5.54269 9.84533 5.55293 9.9844 5.52936 10.1198L4.92354 13.6038L8.10065 11.959C8.22414 11.8951 8.36157 11.8617 8.50109 11.8617C8.6406 11.8617 8.77803 11.8951 8.90152 11.959L12.0798 13.6038L11.4717 10.1198C11.4481 9.9844 11.4583 9.84533 11.5015 9.71465C11.5447 9.58397 11.6195 9.46559 11.7195 9.36972L14.2896 6.90359L10.7373 6.39523C10.5994 6.37538 10.4685 6.32286 10.3558 6.24218C10.2431 6.1615 10.1519 6.05507 10.0902 5.93205L8.50109 2.76211Z" fill="#7287FD"/>
</svg>
