<svg width="16" height="17" viewBox="0 0 16 17" fill="none" xmlns="http://www.w3.org/2000/svg">
<path fill-rule="evenodd" clip-rule="evenodd" d="M1.643 3.14405L0.427 1.92805C0.392036 1.893 0.34745 1.86912 0.298896 1.85943C0.250342 1.84975 0.200005 1.8547 0.154269 1.87366C0.108532 1.89262 0.0694546 1.92473 0.0419903 1.96592C0.014526 2.00712 -8.81823e-05 2.05554 4.00326e-07 2.10505V5.75105C4.00326e-07 5.88905 0.112 6.00105 0.25 6.00105H3.896C3.94551 6.00114 3.99393 5.98653 4.03513 5.95906C4.07632 5.9316 4.10843 5.89252 4.12739 5.84678C4.14635 5.80105 4.1513 5.75071 4.14162 5.70216C4.13194 5.6536 4.10805 5.60902 4.073 5.57405L2.715 4.21605C3.60023 2.9797 4.89091 2.09283 6.36246 1.70976C7.83401 1.32668 9.39329 1.47165 10.769 2.11943C12.1447 2.76721 13.2498 3.8768 13.8919 5.25515C14.5341 6.6335 14.6727 8.19337 14.2836 9.66334C13.8945 11.1333 13.0023 12.4203 11.7624 13.3005C10.5224 14.1807 9.01312 14.5983 7.49708 14.4806C5.98105 14.363 4.55424 13.7176 3.4649 12.6566C2.37557 11.5957 1.69266 10.1864 1.535 8.67405C1.51458 8.47607 1.41634 8.2943 1.26191 8.16875C1.10747 8.04319 0.909485 7.98413 0.7115 8.00455C0.513516 8.02497 0.331754 8.12321 0.206198 8.27764C0.0806424 8.43208 0.0215787 8.63007 0.0420004 8.82805C0.234389 10.6793 1.06615 12.4055 2.3941 13.7096C3.72206 15.0137 5.46311 15.814 7.31753 15.9728C9.17195 16.1316 11.0237 15.6389 12.554 14.5796C14.0844 13.5203 15.1975 11.9606 15.7018 10.169C16.2061 8.37739 16.0701 6.46604 15.3171 4.76396C14.5641 3.06188 13.2412 1.67557 11.5763 0.843682C9.91131 0.0117964 8.00843 -0.213613 6.1952 0.206257C4.38196 0.626127 2.77184 1.66501 1.642 3.14405H1.643ZM7.75 4.00105C7.94891 4.00105 8.13968 4.08007 8.28033 4.22072C8.42098 4.36137 8.5 4.55214 8.5 4.75105V7.74305L10.528 8.55505C10.7067 8.63296 10.8481 8.77739 10.9221 8.95774C10.9961 9.1381 10.997 9.34019 10.9246 9.52119C10.8522 9.7022 10.7121 9.84789 10.5341 9.92738C10.3561 10.0069 10.1541 10.0139 9.971 9.94705L7.471 8.94705C7.33197 8.89133 7.21281 8.79526 7.12886 8.67122C7.04492 8.54717 7.00004 8.40083 7 8.25105V4.75105C7 4.55214 7.07902 4.36137 7.21967 4.22072C7.36032 4.08007 7.55109 4.00105 7.75 4.00105Z" fill="#7287FD"/>
</svg>
